<svg width="80" height="80" viewBox="0 0 80 80" fill="none" xmlns="http://www.w3.org/2000/svg">
<circle cx="40" cy="40" r="40" fill="#00A8FF"/>
<circle cx="40.5" cy="40.5" r="36.5" fill="#00A8FF" stroke="white" stroke-width="2" stroke-dasharray="3 3"/>
<path d="M40.1457 43.961L56.549 25.9566L58.7144 27.9296L40.2961 48.1458L30.2553 38.6008L32.274 36.4774L40.1457 43.961ZM57.5769 33.4805L55.2924 35.9959C55.6241 37.2694 55.8008 38.6047 55.8008 39.9805C55.8008 48.7036 48.7036 55.8008 39.9805 55.8008C31.2573 55.8008 24.1602 48.7036 24.1602 39.9805C24.1602 31.2573 31.2573 24.1602 39.9805 24.1602C44.0216 24.1602 47.713 25.6841 50.5125 28.1862L52.4875 26.0116C49.0444 22.9214 44.6426 21.2305 39.9805 21.2305C34.9723 21.2305 30.2635 23.1808 26.7223 26.7223C23.1808 30.2635 21.2305 34.9723 21.2305 39.9805C21.2305 44.9886 23.1808 49.6974 26.7223 53.2387C30.2635 56.7802 34.9723 58.7305 39.9805 58.7305C44.9886 58.7305 49.6974 56.7802 53.2387 53.2387C56.7802 49.6974 58.7305 44.9886 58.7305 39.9805C58.7305 37.7264 58.3343 35.5338 57.5769 33.4805Z" fill="white"/>
</svg>
