<svg width="80" height="80" viewBox="0 0 80 80" fill="none" xmlns="http://www.w3.org/2000/svg">
<circle cx="40" cy="40" r="40" fill="#00A8FF"/>
<circle cx="40.5" cy="40.5" r="36.5" fill="#00A8FF" stroke="white" stroke-width="2" stroke-dasharray="3 3"/>
<path fill-rule="evenodd" clip-rule="evenodd" d="M35.3047 47.4756H50.8578C52.6189 42.324 59.967 42.3734 61.711 47.4756H63.0105V40.0499C63.0105 39.1247 62.2475 38.3665 61.3168 38.3665C57.497 38.3665 53.6772 38.3665 49.8574 38.3665C49.0317 38.3665 48.3625 37.7016 48.3625 36.8815V27.9704H22.7535V29.7523H25.5017C27.4694 29.7523 27.4694 32.7227 25.5017 32.7227H22.7535V35.5941H29.9281C31.8962 35.5941 31.8962 38.5645 29.9281 38.5645H22.7535V47.4753H24.4519C26.2126 42.3236 33.5611 42.3738 35.3047 47.4756ZM19.764 32.7227H17.9707C16.0026 32.7227 16.0026 29.7523 17.9707 29.7523H19.764V26.485C19.764 25.665 20.4333 25 21.259 25C23.5465 25 48.6866 25.0097 48.6866 25C52.7784 25 56.3425 27.0127 58.4398 30.5097L61.3705 35.3965C63.928 35.4252 66 37.504 66 40.0495V48.9606C66 49.7807 65.3307 50.4456 64.5055 50.4456H61.8997C61.3639 53.0669 59.0328 55 56.2846 55C53.5364 55 51.2053 53.0669 50.6695 50.4456H35.4934C34.9576 53.0669 32.6265 55 29.8783 55C27.1301 55 24.799 53.0669 24.2632 50.4456H21.259C20.4333 50.4456 19.764 49.7807 19.764 48.9606V44.5049H16.4758C14.5081 44.5049 14.5081 41.5349 16.4758 41.5349H19.764V38.5645H16.4758C14.5081 38.5645 14.5081 35.5941 16.4758 35.5941H19.764V32.7227ZM58.2223 47.3817C59.2923 48.4449 59.2923 50.1692 58.2223 51.2324C56.5009 52.9428 53.5441 51.7261 53.5441 49.3071C53.5441 46.888 56.5009 45.6713 58.2223 47.3817ZM57.9013 35.3962H51.3519V28.3729C53.2589 28.9802 54.8184 30.2553 55.8822 32.0295L57.9013 35.3962ZM31.816 47.3817C32.886 48.4449 32.886 50.1692 31.816 51.2324C30.0946 52.9428 27.1379 51.7261 27.1379 49.3071C27.1383 46.888 30.0946 45.6713 31.816 47.3817Z" fill="white"/>
</svg>
