<svg width="80" height="80" viewBox="0 0 80 80" fill="none" xmlns="http://www.w3.org/2000/svg">
<circle cx="40" cy="40" r="40" fill="#00A8FF"/>
<circle cx="40.5" cy="40.5" r="36.5" fill="#00A8FF" stroke="white" stroke-width="2" stroke-dasharray="3 3"/>
<path d="M59.6567 50.8994L53.3185 44.5605L53.188 42.9539L54.9348 41.8894C55.4288 41.5883 55.6292 40.9717 55.4065 40.4377L54.6194 38.5497L55.9516 36.9975C56.3284 36.5585 56.3285 35.9103 55.9518 35.4711L54.6194 33.9184L55.4065 32.0303C55.6292 31.4963 55.4288 30.8797 54.9348 30.5786L53.188 29.5141L53.3536 27.4755C53.4005 26.8988 53.0193 26.3742 52.4564 26.2404L50.4664 25.7678L49.9937 23.7773C49.86 23.2142 49.3343 22.8334 48.7587 22.88L46.7194 23.0456L45.6548 21.2988C45.3537 20.8046 44.7368 20.6045 44.203 20.8271L42.3151 21.6147L40.7633 20.2826C40.3243 19.9058 39.6758 19.9058 39.2368 20.2826L37.6848 21.6147L35.7969 20.8271C35.2627 20.6044 34.6462 20.8047 34.345 21.2988L33.2804 23.0457L31.2412 22.8801C30.6644 22.8339 30.1399 23.2143 30.0062 23.7774L29.5334 25.7679L27.5434 26.2405C26.9805 26.3742 26.5994 26.8988 26.6462 27.4756L26.8119 29.5142L25.0651 30.5787C24.571 30.8798 24.3706 31.4963 24.5933 32.0304L25.3805 33.9185L24.048 35.4712C23.6713 35.9103 23.6714 36.5585 24.0482 36.9976L25.3804 38.5498L24.5933 40.4378C24.3706 40.9717 24.571 41.5884 25.0651 41.8895L26.8119 42.954L26.6813 44.5606L20.3433 50.8994C20.0561 51.1866 19.938 51.602 20.0314 51.9973C20.1247 52.3926 20.4161 52.7113 20.8013 52.8398L25.5707 54.4294L27.1603 59.1988C27.2887 59.5841 27.6075 59.8754 28.0028 59.9687C28.3981 60.062 28.8135 59.944 29.1007 59.6568L37.8031 50.9551L39.2366 52.186C39.6735 52.561 40.322 52.5649 40.7634 52.186L42.1969 50.9551L50.8994 59.6567C51.1865 59.9439 51.6019 60.062 51.9973 59.9686C52.3926 59.8753 52.7113 59.5839 52.8398 59.1987L54.4294 54.4293L59.1987 52.8397C59.584 52.7113 59.8754 52.3925 59.9687 51.9972C60.0619 51.602 59.9439 51.1865 59.6567 50.8994ZM28.7846 56.6588L27.6088 53.1317C27.4922 52.7818 27.2175 52.5072 26.8676 52.3906L23.3414 51.2153L28.1783 46.3783L29.5335 46.7003L30.0063 48.6908C30.1401 49.2538 30.6662 49.6347 31.2413 49.5881L33.2805 49.4224L34.3183 51.1253L28.7846 56.6588ZM45.094 47.5861L44.1771 49.0906L42.5512 48.4123C42.1426 48.2418 41.6726 48.3162 41.3365 48.6047L40 49.7523L38.6634 48.6047C38.1935 48.2012 37.6649 48.3221 37.4488 48.4123L35.8229 49.0906L34.906 47.5861C34.6757 47.2081 34.2527 46.9923 33.8105 47.0279L32.0542 47.1706L31.647 45.4562C31.5448 45.0254 31.2084 44.6892 30.7777 44.5868L29.0639 44.1797L29.2065 42.4239C29.2424 41.9826 29.0264 41.5588 28.6483 41.3284L27.1436 40.4114L27.8215 38.7854C27.9919 38.3768 27.9176 37.9071 27.6291 37.5712L26.4817 36.2343L27.6292 34.897C27.9174 34.561 27.9919 34.0914 27.8215 33.6828L27.1435 32.0568L28.6482 31.1399C29.0263 30.9094 29.2423 30.4856 29.2065 30.0443L29.0638 28.2885L30.7776 27.8815C31.2083 27.7792 31.5447 27.4429 31.6469 27.0121L32.0541 25.2978L33.8105 25.4403C34.2518 25.4765 34.6755 25.2603 34.9059 24.8821L35.8228 23.3776L37.4487 24.056C37.8572 24.2263 38.3272 24.1521 38.6632 23.8637L40 22.7163L41.3367 23.8637C41.6728 24.1521 42.1426 24.2263 42.5512 24.056L44.1771 23.3776L45.094 24.8821C45.3244 25.2602 45.7476 25.4767 46.1894 25.4403L47.9458 25.2978L48.353 27.0121C48.4552 27.4429 48.7915 27.7792 49.2223 27.8815L50.9361 28.2885L50.7934 30.0443C50.7576 30.4856 50.9736 30.9095 51.3517 31.1399L52.8564 32.0568L52.1784 33.6828C52.008 34.0913 52.0824 34.561 52.3707 34.897L53.5182 36.2343L52.3708 37.5712C52.0824 37.9071 52.008 38.3768 52.1783 38.7854L52.8563 40.4114L51.3516 41.3284C50.9735 41.5588 50.7576 41.9827 50.7933 42.4239L50.936 44.1797L49.2222 44.5868C48.7915 44.6892 48.4551 45.0254 48.3529 45.4562L47.9457 47.1706L46.1894 47.0279C45.7481 46.9921 45.3244 47.208 45.094 47.5861ZM53.1323 52.3906C52.7824 52.5072 52.5078 52.7818 52.3912 53.1317L51.2154 56.6588L45.6819 51.1253L46.7196 49.4224L48.7588 49.588C49.3338 49.6346 49.8601 49.2538 49.9938 48.6907L50.4666 46.7002L51.8219 46.3782L56.6587 51.2152L53.1323 52.3906Z" fill="white"/>
<path d="M49.6147 32.8955L46.0644 29.3452C45.6068 28.8875 44.8648 28.8875 44.4071 29.3452L38.7445 35.0079L36.2198 32.4832C35.7622 32.0256 35.0202 32.0256 34.5625 32.4832L31.0122 36.0336C30.5545 36.4913 30.5545 37.2332 31.0122 37.6909L37.9159 44.5946C38.3735 45.0523 39.1156 45.0521 39.5731 44.5946L49.6148 34.5529C50.0724 34.0951 50.0724 33.3532 49.6147 32.8955ZM38.7445 42.1086L33.498 36.8622L35.3911 34.9692L37.9158 37.4938C38.3734 37.9514 39.1154 37.9514 39.573 37.4938L45.2357 31.8311L47.1287 33.7242L38.7445 42.1086Z" fill="white"/>
</svg>
