<svg width="80" height="80" viewBox="0 0 80 80" fill="none" xmlns="http://www.w3.org/2000/svg">
<circle cx="40" cy="40" r="40" fill="#00A8FF"/>
<circle cx="40.5" cy="40.5" r="36.5" fill="#00A8FF" stroke="white" stroke-width="2" stroke-dasharray="3 3"/>
<path fill-rule="evenodd" clip-rule="evenodd" d="M26.0728 22.5272C25.3698 21.8243 24.2302 21.8243 23.5272 22.5272C22.8243 23.2302 22.8243 24.3698 23.5272 25.0728L55.9272 57.4728C56.6301 58.1757 57.7698 58.1757 58.4727 57.4728C59.1756 56.7699 59.1756 55.6301 58.4727 54.9272L52.7556 49.2101C53.3015 47.7436 53.6 46.1565 53.6 44.5C53.6 38.8559 50.3637 33.2794 47.3923 29.2999C45.8767 27.2703 44.3651 25.5712 43.2331 24.3796C42.6661 23.7828 42.1918 23.3107 41.8564 22.9852C41.6048 22.7409 41.4311 22.5789 41.3544 22.5082C40.6628 21.8734 39.5976 21.8239 38.8891 22.4682C38.7039 22.6369 38.5234 22.8107 38.3435 22.9852C38.0082 23.3107 37.5339 23.7828 36.9669 24.3796C35.8388 25.567 34.3339 27.2582 32.8238 29.2783L26.0728 22.5272ZM35.398 31.8524L49.8381 46.2926C49.9443 45.7112 50 45.112 50 44.5C50 40.0823 47.3862 35.3089 44.5076 31.4538C43.0982 29.5661 41.6849 27.9767 40.6231 26.8592C40.4369 26.6633 40.262 26.4821 40.1 26.3168C39.938 26.4821 39.763 26.6633 39.5769 26.8592C38.5151 27.9767 37.1018 29.5661 35.6923 31.4538C35.5938 31.5856 35.4957 31.7185 35.398 31.8524Z" fill="white"/>
<path d="M26.6001 44.5C26.6001 41.0496 27.8096 37.6246 29.4286 34.5741L32.1071 37.2527C30.958 39.639 30.2001 42.121 30.2001 44.5C30.2001 49.9677 34.6325 54.4 40.1001 54.4C42.6442 54.4 44.9642 53.4403 46.7178 51.8633L49.266 54.4116C46.8587 56.6389 43.6383 58 40.1001 58C32.6442 58 26.6001 51.9558 26.6001 44.5Z" fill="white"/>
<path d="M33.8 42.5C34.7941 42.5 35.6 43.3059 35.6 44.3C35.6 46.9491 37.6673 49 40.1 49C41.0941 49 41.9 49.8058 41.9 50.8C41.9 51.7941 41.0941 52.6 40.1 52.6C35.5739 52.6 32 48.8304 32 44.3C32 43.3059 32.8059 42.5 33.8 42.5Z" fill="white"/>
</svg>
