<svg width="80" height="80" viewBox="0 0 80 80" fill="none" xmlns="http://www.w3.org/2000/svg">
<circle cx="40" cy="40" r="40" fill="#00A8FF"/>
<circle cx="40.5" cy="40.5" r="36.5" fill="#00A8FF" stroke="white" stroke-width="2" stroke-dasharray="3 3"/>
<g clip-path="url(#clip0_36_2464)">
<path d="M25.175 39.0265C24.8273 38.1213 24.5453 37.2381 24.3383 36.4008C24.1034 35.453 23.9557 34.5305 23.8983 33.6577C23.8763 33.3287 23.8692 32.988 23.877 32.6481C23.8841 32.292 23.6021 31.9971 23.246 31.9888C23.2415 31.9888 23.2363 31.9888 23.2318 31.9888C22.8821 31.9888 22.5951 32.2688 22.5866 32.6197C22.5783 32.9984 22.5866 33.3764 22.6106 33.7435C22.6725 34.6919 22.8325 35.6899 23.0854 36.7118C23.3054 37.6008 23.6034 38.5362 23.9705 39.4911C24.2777 40.2897 24.6447 41.1284 25.0608 41.9832C25.1725 42.2129 25.4021 42.3464 25.6415 42.3464C25.7363 42.3464 25.8324 42.3251 25.924 42.2799C26.2447 42.1238 26.3776 41.7374 26.2221 41.4174C25.8221 40.5954 25.4692 39.791 25.175 39.0265Z" fill="white"/>
<path d="M23.3647 30.9539C23.4144 30.9655 23.4647 30.9713 23.5138 30.9713C23.806 30.9713 24.0712 30.7713 24.1415 30.4752C24.1628 30.3849 24.1847 30.2952 24.2086 30.2055C24.3003 29.861 24.0944 29.5081 23.75 29.4165C23.4061 29.3275 23.0532 29.5308 22.961 29.8752C22.9345 29.9758 22.91 30.0765 22.8861 30.1778C22.8034 30.5243 23.0182 30.872 23.3647 30.9539Z" fill="white"/>
<path d="M60 32.2579C60 25.4988 54.5015 20.0004 47.7424 20.0004C43.9732 20.0004 40.5965 21.7108 38.3462 24.3958C38.2491 24.4125 38.1524 24.4267 38.0538 24.4363C36.9693 24.5428 35.8996 24.3731 34.9519 23.9421C31.4863 22.3642 26.5994 21.6796 23.2808 24.4892C20.9887 26.4317 19.7752 29.9548 20.0345 33.914C20.3326 38.4203 22.3835 42.5918 23.9015 45.3394C24.1711 45.8239 24.4511 46.2968 24.7298 46.7671C25.8182 48.6038 26.8452 50.3379 27.0685 52.5204C27.093 52.7714 27.1149 53.0224 27.1362 53.2753C27.2485 54.5662 27.3639 55.9023 27.8678 57.1525C28.4806 58.6563 29.9528 60.1814 31.7792 59.9821C32.7636 59.8653 33.714 59.2157 34.2623 58.2828C35.2132 56.6332 35.0075 54.6985 34.8075 52.8282C34.6655 51.4992 34.532 50.2451 34.8068 49.1612C35.0094 48.3426 35.6881 47.7077 36.5364 47.5426C37.9022 47.2748 39.6356 47.5413 40.0324 49.1651C40.3066 50.2457 40.173 51.4998 40.0311 52.8288C39.8324 54.699 39.6259 56.6338 40.5794 58.2879C41.1252 59.2162 42.0762 59.8652 43.0651 59.9826C43.1742 59.9943 43.2812 60.0001 43.3877 60.0001C45.0509 60.0001 46.396 58.5659 46.9746 57.1511C47.4772 55.9021 47.5927 54.5667 47.7049 53.2757C47.7263 53.0228 47.7481 52.7719 47.7727 52.5235C47.9959 50.3384 49.023 48.6043 50.1113 46.7676C50.39 46.2973 50.67 45.8244 50.941 45.3373C51.253 44.7711 51.5074 44.2912 51.7308 43.8486C56.5374 42.1902 60 37.6212 60 32.2579ZM49.812 44.7123C49.5482 45.1871 49.274 45.6497 49.0011 46.1096C47.8902 47.985 46.7412 49.925 46.4883 52.3945C46.4632 52.6493 46.4412 52.9067 46.4186 53.1635C46.3103 54.4156 46.2083 55.5982 45.7786 56.6659C45.3283 57.7691 44.2929 58.8213 43.2136 58.7001C42.6213 58.6297 42.0381 58.2207 41.6955 57.6382C40.9543 56.3524 41.1298 54.7067 41.3155 52.9648C41.4626 51.5816 41.6155 50.152 41.2858 48.8527C40.713 46.5122 38.3653 45.8702 36.2912 46.276C34.9519 46.536 33.8778 47.5463 33.5565 48.8469C33.2261 50.152 33.3784 51.581 33.5261 52.9641C33.7119 54.706 33.8874 56.3517 33.1487 57.633C32.8029 58.2207 32.2204 58.6297 31.6333 58.6987C30.5514 58.8284 29.5134 57.7684 29.065 56.6672C28.6341 55.5969 28.5321 54.4144 28.4238 53.1628C28.4012 52.906 28.3792 52.6487 28.3541 52.3913C28.1012 49.9243 26.9522 47.9844 25.8413 46.109C25.5684 45.649 25.2942 45.1864 25.031 44.7135C23.5736 42.0756 21.6047 38.0776 21.3233 33.8288C21.0905 30.2754 22.1343 27.1523 24.1155 25.4736C26.976 23.0505 31.4533 23.7666 34.4183 25.1162C35.3289 25.53 36.3299 25.7469 37.3556 25.7564C36.171 27.6422 35.4847 29.8711 35.4847 32.2578C35.4847 39.0169 40.9832 44.5154 47.7423 44.5154C48.5267 44.5154 49.2938 44.4404 50.0377 44.2989C49.9659 44.4319 49.8912 44.5688 49.812 44.7123ZM47.7424 43.2253C41.6949 43.2253 36.7751 38.3055 36.7751 32.2579C36.7751 26.2104 41.6949 21.2907 47.7424 21.2907C53.79 21.2907 58.7098 26.2105 58.7098 32.2579C58.7098 38.3054 53.79 43.2253 47.7424 43.2253Z" fill="white"/>
<path d="M47.7425 22.5807C42.4066 22.5807 38.0654 26.9218 38.0654 32.2577C38.0654 37.5936 42.4066 41.9348 47.7425 41.9348C53.0784 41.9348 57.4195 37.5937 57.4195 32.2577C57.4195 26.9217 53.0784 22.5807 47.7425 22.5807ZM47.7425 40.6445C43.1181 40.6445 39.3557 36.8821 39.3557 32.2578C39.3557 27.6335 43.1181 23.8711 47.7425 23.8711C52.3668 23.8711 56.1292 27.6334 56.1292 32.2577C56.1292 36.8821 52.3668 40.6445 47.7425 40.6445Z" fill="white"/>
<path d="M53.5487 30.3224H49.6778V26.4515C49.6778 26.0948 49.3895 25.8064 49.0327 25.8064H46.4521C46.0954 25.8064 45.807 26.0948 45.807 26.4515V30.3224H41.9362C41.5794 30.3224 41.291 30.6107 41.291 30.9675V33.5481C41.291 33.9048 41.5794 34.1932 41.9362 34.1932H45.807V38.064C45.807 38.4208 46.0954 38.7092 46.4521 38.7092H49.0327C49.3895 38.7092 49.6778 38.4208 49.6778 38.064V34.1932H53.5487C53.9054 34.1932 54.1938 33.9048 54.1938 33.5481V30.9675C54.1938 30.6107 53.9054 30.3224 53.5487 30.3224ZM52.9035 32.9029H49.0327C48.6759 32.9029 48.3875 33.1913 48.3875 33.5481V37.4189H47.0972V33.5481C47.0972 33.1913 46.8089 32.9029 46.4521 32.9029H42.5812V31.6126H46.4521C46.8089 31.6126 47.0972 31.3242 47.0972 30.9674V27.0967H48.3875V30.9675C48.3875 31.3243 48.6759 31.6127 49.0327 31.6127H52.9035V32.9029Z" fill="white"/>
</g>
<defs>
<clipPath id="clip0_36_2464">
<rect width="40" height="40" fill="white" transform="translate(20 20)"/>
</clipPath>
</defs>
</svg>
