<svg width="80" height="80" viewBox="0 0 80 80" fill="none" xmlns="http://www.w3.org/2000/svg">
<circle cx="40" cy="40" r="40" fill="#00A8FF"/>
<circle cx="40.5" cy="40.5" r="36.5" fill="#00A8FF" stroke="white" stroke-width="2" stroke-dasharray="3 3"/>
<path d="M38.7092 44.1474C38.7092 43.9725 38.6748 43.7994 38.6079 43.6378C38.5409 43.4763 38.4428 43.3295 38.3192 43.2058C38.1955 43.0822 38.0487 42.9841 37.8872 42.9172C37.7256 42.8502 37.5525 42.8158 37.3776 42.8158H34.0174C33.8524 42.8158 33.6941 42.7502 33.5774 42.6335C33.4607 42.5169 33.3952 42.3586 33.3952 42.1935V41.3722H37.3776C37.5624 41.3901 37.749 41.3692 37.9253 41.3107C38.1015 41.2523 38.2636 41.1576 38.4012 41.0328C38.5387 40.908 38.6486 40.7558 38.7238 40.586C38.799 40.4161 38.8378 40.2325 38.8378 40.0468C38.8378 39.8611 38.799 39.6774 38.7238 39.5076C38.6486 39.3378 38.5387 39.1856 38.4012 39.0608C38.2636 38.9359 38.1015 38.8413 37.9253 38.7828C37.749 38.7244 37.5624 38.7034 37.3776 38.7214H33.3952V37.9C33.3952 37.735 33.4607 37.5767 33.5774 37.46C33.6941 37.3433 33.8524 37.2777 34.0174 37.2777H37.3776C37.5624 37.2957 37.749 37.2748 37.9253 37.2163C38.1015 37.1579 38.2636 37.0632 38.4012 36.9384C38.5387 36.8135 38.6486 36.6613 38.7238 36.4915C38.799 36.3217 38.8378 36.1381 38.8378 35.9523C38.8378 35.7666 38.799 35.583 38.7238 35.4132C38.6486 35.2434 38.5387 35.0912 38.4012 34.9663C38.2636 34.8415 38.1015 34.7468 37.9253 34.6884C37.749 34.6299 37.5624 34.609 37.3776 34.627H34.0174C33.1461 34.627 32.3104 34.9731 31.6942 35.5892C31.0781 36.2054 30.7319 37.0411 30.7319 37.9124V42.206C30.7319 43.0774 31.0781 43.913 31.6942 44.5292C32.3104 45.1453 33.1461 45.4915 34.0174 45.4915H37.3776C37.5535 45.4915 37.7277 45.4566 37.8901 45.3889C38.0525 45.3213 38.1998 45.2221 38.3236 45.0971C38.4474 44.9721 38.5453 44.8238 38.6114 44.6608C38.6776 44.4978 38.7109 44.3233 38.7092 44.1474Z" fill="white"/>
<path d="M49.4866 41.4097V35.9338C49.5045 35.749 49.4836 35.5624 49.4252 35.3862C49.3667 35.2099 49.272 35.0478 49.1472 34.9103C49.0224 34.7728 48.8702 34.6629 48.7004 34.5877C48.5306 34.5125 48.3469 34.4736 48.1612 34.4736C47.9755 34.4736 47.7918 34.5125 47.622 34.5877C47.4522 34.6629 47.3 34.7728 47.1752 34.9103C47.0504 35.0478 46.9557 35.2099 46.8973 35.3862C46.8388 35.5624 46.8179 35.749 46.8358 35.9338V41.4097C46.8358 41.7826 46.6877 42.1403 46.4239 42.4041C46.1602 42.6678 45.8025 42.816 45.4295 42.816C45.0566 42.816 44.6989 42.6678 44.4351 42.4041C44.1714 42.1403 44.0232 41.7826 44.0232 41.4097V35.9338C44.0412 35.749 44.0202 35.5624 43.9618 35.3862C43.9033 35.2099 43.8087 35.0478 43.6838 34.9103C43.559 34.7728 43.4068 34.6629 43.237 34.5877C43.0672 34.5125 42.8835 34.4736 42.6978 34.4736C42.5121 34.4736 42.3285 34.5125 42.1587 34.5877C41.9888 34.6629 41.8366 34.7728 41.7118 34.9103C41.587 35.0478 41.4923 35.2099 41.4339 35.3862C41.3754 35.5624 41.3545 35.749 41.3724 35.9338V41.4097C41.3724 42.4857 41.7999 43.5176 42.5607 44.2785C43.3216 45.0393 44.3535 45.4668 45.4295 45.4668C46.5055 45.4668 47.5375 45.0393 48.2983 44.2785C49.0592 43.5176 49.4866 42.4857 49.4866 41.4097Z" fill="white"/>
<path d="M37.3901 25.4426H37.9004L37.5519 26.1769C37.4702 26.333 37.42 26.5036 37.4043 26.6791C37.3885 26.8545 37.4074 27.0314 37.46 27.1995C37.5126 27.3677 37.5978 27.5238 37.7107 27.659C37.8236 27.7943 37.9621 27.9059 38.1182 27.9876C38.4334 28.1527 38.8012 28.1857 39.1408 28.0795C39.309 28.027 39.4651 27.9418 39.6003 27.8288C39.7356 27.7159 39.8472 27.5775 39.9289 27.4214L40.0409 27.0854L40.1778 27.3716C40.3429 27.6868 40.6263 27.9236 40.9659 28.0298C41.3055 28.1359 41.6734 28.1029 41.9886 27.9379C42.3038 27.7728 42.5405 27.4893 42.6467 27.1498C42.7529 26.8102 42.7199 26.4423 42.5548 26.1271L42.1939 25.3928H42.7042C43.0335 25.3609 43.3392 25.2075 43.5616 24.9624C43.784 24.7174 43.9072 24.3984 43.9072 24.0674C43.9072 23.7365 43.784 23.4175 43.5616 23.1725C43.3392 22.9274 43.0335 22.774 42.7042 22.742H41.3726V21.4602C41.3905 21.2754 41.3696 21.0888 41.3111 20.9125C41.2527 20.7363 41.158 20.5742 41.0332 20.4366C40.9083 20.2991 40.7561 20.1892 40.5863 20.114C40.4165 20.0388 40.2329 20 40.0472 20C39.8614 20 39.6778 20.0388 39.508 20.114C39.3382 20.1892 39.186 20.2991 39.0611 20.4366C38.9363 20.5742 38.8417 20.7363 38.7832 20.9125C38.7248 21.0888 38.7038 21.2754 38.7218 21.4602V22.7794H37.3901C37.2053 22.7614 37.0187 22.7824 36.8425 22.8408C36.6662 22.8993 36.5041 22.9939 36.3666 23.1188C36.2291 23.2436 36.1192 23.3958 36.044 23.5656C35.9688 23.7354 35.9299 23.9191 35.9299 24.1048C35.9299 24.2905 35.9688 24.4742 36.044 24.644C36.1192 24.8138 36.2291 24.966 36.3666 25.0908C36.5041 25.2156 36.6662 25.3103 36.8425 25.3687C37.0187 25.4272 37.2053 25.4481 37.3901 25.4302V25.4426Z" fill="white"/>
<path d="M42.6916 54.6388H41.3725V53.3196C41.3904 53.1347 41.3695 52.9482 41.311 52.7719C41.2526 52.5956 41.1579 52.4335 41.0331 52.296C40.9083 52.1585 40.7561 52.0486 40.5863 51.9734C40.4164 51.8982 40.2328 51.8594 40.0471 51.8594C39.8614 51.8594 39.6777 51.8982 39.5079 51.9734C39.3381 52.0486 39.1859 52.1585 39.0611 52.296C38.9362 52.4335 38.8416 52.5956 38.7831 52.7719C38.7247 52.9482 38.7037 53.1347 38.7217 53.3196V54.6512H37.3901C37.0607 54.6832 36.755 54.8366 36.5326 55.0816C36.3102 55.3266 36.187 55.6457 36.187 55.9766C36.187 56.3075 36.3102 56.6266 36.5326 56.8716C36.755 57.1166 37.0607 57.27 37.3901 57.302H37.9003L37.5394 58.0363C37.4577 58.1923 37.4075 58.363 37.3917 58.5384C37.376 58.7139 37.3949 58.8908 37.4475 59.0589C37.5001 59.2271 37.5853 59.3832 37.6982 59.5184C37.8111 59.6536 37.9496 59.7653 38.1056 59.847C38.4209 60.012 38.7887 60.0451 39.1283 59.9389C39.4679 59.8327 39.7514 59.596 39.9164 59.2808L40.0533 58.9945L40.1902 59.2808C40.3552 59.596 40.6387 59.8327 40.9783 59.9389C41.3179 60.0451 41.6857 60.012 42.0009 59.847C42.3162 59.682 42.5529 59.3985 42.6591 59.0589C42.7653 58.7193 42.7322 58.3515 42.5672 58.0363L42.2063 57.302H42.7165C43.0459 57.27 43.3516 57.1166 43.574 56.8716C43.7964 56.6266 43.9196 56.3075 43.9196 55.9766C43.9196 55.6457 43.7964 55.3266 43.574 55.0816C43.3516 54.8366 43.0459 54.6832 42.7165 54.6512L42.6916 54.6388Z" fill="white"/>
<path d="M26.5878 29.9104H27.0981L26.7371 30.6447C26.5721 30.9599 26.5391 31.3277 26.6453 31.6673C26.7514 32.0069 26.9882 32.2904 27.3034 32.4554C27.6186 32.6204 27.9865 32.6535 28.326 32.5473C28.6656 32.4411 28.9491 32.2044 29.1142 31.8892L29.251 31.6154L29.3879 31.8892C29.553 32.2044 29.8365 32.4411 30.176 32.5473C30.5156 32.6535 30.8835 32.6204 31.1987 32.4554C31.5139 32.2904 31.7507 32.0069 31.8568 31.6673C31.963 31.3277 31.93 30.9599 31.7649 30.6447L31.404 29.9104H31.9143C32.2437 29.8784 32.5493 29.725 32.7717 29.48C32.9941 29.235 33.1173 28.9159 33.1173 28.585C33.1173 28.2541 32.9941 27.935 32.7717 27.69C32.5493 27.445 32.2437 27.2916 31.9143 27.2596H30.5702V25.928C30.5882 25.7431 30.5672 25.5566 30.5088 25.3803C30.4503 25.204 30.3557 25.0419 30.2308 24.9044C30.106 24.7669 29.9538 24.657 29.784 24.5818C29.6142 24.5066 29.4305 24.4678 29.2448 24.4678C29.0591 24.4678 28.8755 24.5066 28.7056 24.5818C28.5358 24.657 28.3836 24.7669 28.2588 24.9044C28.134 25.0419 28.0393 25.204 27.9809 25.3803C27.9224 25.5566 27.9015 25.7431 27.9194 25.928V27.2596H26.5878C26.2584 27.2916 25.9528 27.445 25.7304 27.69C25.508 27.935 25.3848 28.2541 25.3848 28.585C25.3848 28.9159 25.508 29.235 25.7304 29.48C25.9528 29.725 26.2584 29.8784 26.5878 29.9104Z" fill="white"/>
<path d="M54.4271 49.7851H53.0955V48.4535C53.0635 48.1242 52.9101 47.8185 52.665 47.5961C52.42 47.3737 52.101 47.2505 51.7701 47.2505C51.4391 47.2505 51.1201 47.3737 50.8751 47.5961C50.63 47.8185 50.4766 48.1242 50.4447 48.4535V49.7851H49.113C48.9282 49.7672 48.7416 49.7881 48.5654 49.8466C48.3891 49.905 48.227 49.9997 48.0895 50.1245C47.952 50.2494 47.8421 50.4016 47.7669 50.5714C47.6917 50.7412 47.6528 50.9248 47.6528 51.1105C47.6528 51.2963 47.6917 51.4799 47.7669 51.6497C47.8421 51.8195 47.952 51.9717 48.0895 52.0966C48.227 52.2214 48.3891 52.3161 48.5654 52.3745C48.7416 52.4329 48.9282 52.4539 49.113 52.4359H49.6233L49.2624 53.1702C49.0973 53.4854 49.0643 53.8533 49.1705 54.1929C49.2767 54.5324 49.5134 54.8159 49.8286 54.981C50.1438 55.146 50.5117 55.179 50.8513 55.0729C51.1909 54.9667 51.4743 54.7299 51.6394 54.4147L51.7763 54.1409L51.9132 54.4147C51.9949 54.5708 52.1065 54.7092 52.2418 54.8222C52.377 54.9351 52.5331 55.0203 52.7013 55.0729C52.8694 55.1254 53.0463 55.1444 53.2217 55.1286C53.3972 55.1128 53.5679 55.0627 53.7239 54.981C53.88 54.8992 54.0185 54.7876 54.1314 54.6524C54.2443 54.5171 54.3295 54.361 54.3821 54.1929C54.4347 54.0247 54.4536 53.8479 54.4378 53.6724C54.4221 53.4969 54.3719 53.3263 54.2902 53.1702L53.9168 52.4857H54.4271C54.7564 52.4538 55.0621 52.3003 55.2845 52.0553C55.5069 51.8103 55.6301 51.4912 55.6301 51.1603C55.6301 50.8294 55.5069 50.5104 55.2845 50.2653C55.0621 50.0203 54.7564 49.8669 54.4271 49.8349V49.7851Z" fill="white"/>
<path d="M26.0275 44.3342C26.1864 44.2562 26.3281 44.1474 26.4445 44.014C26.5608 43.8806 26.6493 43.7253 26.7049 43.5573C26.7606 43.3893 26.7821 43.2119 26.7684 43.0354C26.7546 42.859 26.7059 42.6871 26.6249 42.5297L26.264 41.7954H26.7742C26.9591 41.8134 27.1456 41.7924 27.3219 41.734C27.4982 41.6755 27.6603 41.5808 27.7978 41.456C27.9353 41.3312 28.0452 41.179 28.1204 41.0092C28.1956 40.8394 28.2344 40.6557 28.2344 40.47C28.2344 40.2843 28.1956 40.1006 28.1204 39.9308C28.0452 39.761 27.9353 39.6088 27.7978 39.484C27.6603 39.3592 27.4982 39.2645 27.3219 39.2061C27.1456 39.1476 26.9591 39.1267 26.7742 39.1446H25.4426V37.8379C25.4606 37.653 25.4396 37.4665 25.3812 37.2902C25.3227 37.1139 25.2281 36.9518 25.1032 36.8143C24.9784 36.6768 24.8262 36.5669 24.6564 36.4917C24.4866 36.4165 24.3029 36.3777 24.1172 36.3777C23.9315 36.3777 23.7478 36.4165 23.578 36.4917C23.4082 36.5669 23.256 36.6768 23.1312 36.8143C23.0064 36.9518 22.9117 37.1139 22.8533 37.2902C22.7948 37.4665 22.7739 37.653 22.7918 37.8379V39.1695H21.4602C21.2754 39.1516 21.0888 39.1725 20.9125 39.231C20.7363 39.2894 20.5742 39.3841 20.4366 39.5089C20.2991 39.6337 20.1892 39.7859 20.114 39.9557C20.0388 40.1255 20 40.3092 20 40.4949C20 40.6806 20.0388 40.8643 20.114 41.0341C20.1892 41.2039 20.2991 41.3561 20.4366 41.4809C20.5742 41.6057 20.7363 41.7004 20.9125 41.7589C21.0888 41.8173 21.2754 41.8382 21.4602 41.8203H21.9705L21.5971 42.5297C21.4321 42.8449 21.399 43.2127 21.5052 43.5523C21.6114 43.8919 21.8481 44.1754 22.1633 44.3404C22.4786 44.5055 22.8464 44.5385 23.186 44.4323C23.5256 44.3261 23.8091 44.0894 23.9741 43.7742L24.111 43.4879L24.2479 43.7742C24.4055 44.0886 24.6811 44.3279 25.0146 44.4398C25.348 44.5517 25.7121 44.5272 26.0275 44.3715V44.3342Z" fill="white"/>
<path d="M58.6212 39.182H57.302V37.8503C57.3199 37.6655 57.299 37.4789 57.2406 37.3027C57.1821 37.1264 57.0874 36.9643 56.9626 36.8268C56.8378 36.6893 56.6856 36.5794 56.5158 36.5042C56.346 36.429 56.1623 36.3901 55.9766 36.3901C55.7909 36.3901 55.6072 36.429 55.4374 36.5042C55.2676 36.5794 55.1154 36.6893 54.9906 36.8268C54.8658 36.9643 54.7711 37.1264 54.7126 37.3027C54.6542 37.4789 54.6333 37.6655 54.6512 37.8503V39.182H53.3196C53.1347 39.164 52.9482 39.185 52.7719 39.2434C52.5956 39.3019 52.4335 39.3965 52.296 39.5213C52.1585 39.6462 52.0486 39.7984 51.9734 39.9682C51.8982 40.138 51.8594 40.3216 51.8594 40.5074C51.8594 40.6931 51.8982 40.8767 51.9734 41.0465C52.0486 41.2164 52.1585 41.3686 52.296 41.4934C52.4335 41.6182 52.5956 41.7129 52.7719 41.7713C52.9482 41.8298 53.1347 41.8507 53.3196 41.8328H53.8298L53.4689 42.567C53.3039 42.8822 53.2708 43.2501 53.377 43.5897C53.4832 43.9293 53.72 44.2127 54.0352 44.3778C54.3504 44.5428 54.7182 44.5759 55.0578 44.4697C55.3974 44.3635 55.6809 44.1267 55.8459 43.8115L55.9828 43.5253L56.1197 43.8115C56.2847 44.1267 56.5682 44.3635 56.9078 44.4697C57.2474 44.5759 57.6153 44.5428 57.9305 44.3778C58.2457 44.2127 58.4824 43.9293 58.5886 43.5897C58.6948 43.2501 58.6618 42.8822 58.4967 42.567L58.1358 41.8328H58.6461C58.9754 41.8008 59.2811 41.6474 59.5035 41.4023C59.7259 41.1573 59.8491 40.8383 59.8491 40.5074C59.8491 40.1765 59.7259 39.8574 59.5035 39.6124C59.2811 39.3674 58.9754 39.2139 58.6461 39.182H58.6212Z" fill="white"/>
<path d="M31.7024 49.3121H30.3833V47.9805C30.4012 47.7956 30.3803 47.6091 30.3218 47.4328C30.2634 47.2565 30.1687 47.0944 30.0439 46.9569C29.9191 46.8194 29.7669 46.7095 29.5971 46.6343C29.4272 46.5591 29.2436 46.5203 29.0579 46.5203C28.8722 46.5203 28.6885 46.5591 28.5187 46.6343C28.3489 46.7095 28.1967 46.8194 28.0719 46.9569C27.947 47.0944 27.8524 47.2565 27.7939 47.4328C27.7355 47.6091 27.7145 47.7956 27.7325 47.9805V49.3121H26.3511C26.1662 49.2942 25.9797 49.3151 25.8034 49.3735C25.6271 49.432 25.465 49.5267 25.3275 49.6515C25.19 49.7763 25.0801 49.9285 25.0049 50.0983C24.9297 50.2681 24.8909 50.4518 24.8909 50.6375C24.8909 50.8232 24.9297 51.0069 25.0049 51.1767C25.0801 51.3465 25.19 51.4987 25.3275 51.6235C25.465 51.7483 25.6271 51.843 25.8034 51.9014C25.9797 51.9599 26.1662 51.9808 26.3511 51.9629H26.8613L26.5004 52.6971C26.3354 53.0124 26.3023 53.3802 26.4085 53.7198C26.5147 54.0594 26.7515 54.3429 27.0667 54.5079C27.3819 54.6729 27.7497 54.706 28.0893 54.5998C28.4289 54.4936 28.7124 54.2569 28.8774 53.9417L29.0143 53.6554L29.1512 53.9417C29.3162 54.2569 29.5997 54.4936 29.9393 54.5998C30.2789 54.706 30.6468 54.6729 30.962 54.5079C31.2772 54.3429 31.5139 54.0594 31.6201 53.7198C31.7263 53.3802 31.6932 53.0124 31.5282 52.6971L31.1673 51.9629H31.7024C31.8873 51.9808 32.0738 51.9599 32.2501 51.9014C32.4264 51.843 32.5885 51.7483 32.726 51.6235C32.8635 51.4987 32.9734 51.3465 33.0486 51.1767C33.1238 51.0069 33.1627 50.8232 33.1627 50.6375C33.1627 50.4518 33.1238 50.2681 33.0486 50.0983C32.9734 49.9285 32.8635 49.7763 32.726 49.6515C32.5885 49.5267 32.4264 49.432 32.2501 49.3735C32.0738 49.3151 31.8873 49.2942 31.7024 49.3121Z" fill="white"/>
<path d="M48.9265 29.4375H49.4368L49.0759 30.1718C48.9941 30.3278 48.944 30.4985 48.9282 30.6739C48.9124 30.8494 48.9314 31.0263 48.984 31.1944C49.0365 31.3626 49.1217 31.5187 49.2346 31.6539C49.3476 31.7891 49.486 31.9008 49.6421 31.9825C49.9573 32.1475 50.3252 32.1806 50.6648 32.0744C50.8329 32.0218 50.989 31.9366 51.1243 31.8237C51.2595 31.7108 51.3711 31.5723 51.4529 31.4163L51.5898 31.1425L51.7266 31.4163C51.8917 31.7315 52.1752 31.9682 52.5148 32.0744C52.8543 32.1806 53.2222 32.1475 53.5374 31.9825C53.8526 31.8175 54.0894 31.534 54.1955 31.1944C54.3017 30.8548 54.2687 30.487 54.1037 30.1718L53.7303 29.4375H54.2406C54.5699 29.4055 54.8756 29.2521 55.098 29.0071C55.3204 28.7621 55.4436 28.443 55.4436 28.1121C55.4436 27.7812 55.3204 27.4621 55.098 27.2171C54.8756 26.9721 54.5699 26.8187 54.2406 26.7867H52.9089V25.4551C52.9269 25.2702 52.9059 25.0837 52.8475 24.9074C52.789 24.7311 52.6944 24.569 52.5695 24.4315C52.4447 24.294 52.2925 24.1841 52.1227 24.1089C51.9529 24.0337 51.7692 23.9949 51.5835 23.9949C51.3978 23.9949 51.2142 24.0337 51.0443 24.1089C50.8745 24.1841 50.7223 24.294 50.5975 24.4315C50.4727 24.569 50.378 24.7311 50.3196 24.9074C50.2611 25.0837 50.2402 25.2702 50.2581 25.4551V26.7867H48.9265C48.7417 26.7688 48.5551 26.7897 48.3788 26.8481C48.2026 26.9066 48.0405 27.0013 47.9029 27.1261C47.7654 27.2509 47.6555 27.4031 47.5804 27.5729C47.5052 27.7427 47.4663 27.9264 47.4663 28.1121C47.4663 28.2978 47.5052 28.4815 47.5804 28.6513C47.6555 28.8211 47.7654 28.9733 47.9029 29.0981C48.0405 29.2229 48.2026 29.3176 48.3788 29.376C48.5551 29.4345 48.7417 29.4554 48.9265 29.4375Z" fill="white"/>
</svg>
