<svg width="80" height="80" viewBox="0 0 80 80" fill="none" xmlns="http://www.w3.org/2000/svg">
<circle cx="40.0054" cy="40" r="39.5" fill="white" stroke="#01A8FF"/>
<circle cx="40.5054" cy="40.5" r="36.5" fill="white" stroke="#01A8FF" stroke-width="2" stroke-dasharray="3 3"/>
<path fill-rule="evenodd" clip-rule="evenodd" d="M35.1157 46.9773H49.7539C51.4114 42.169 58.3273 42.2152 59.9686 46.9773H61.1918V40.0465C61.1918 39.1831 60.4736 38.4754 59.5976 38.4754C56.0025 38.4754 52.4074 38.4754 48.8123 38.4754C48.0352 38.4754 47.4054 37.8548 47.4054 37.0894V28.7724H23.3028V30.4355H25.8893C27.7413 30.4355 27.7413 33.2078 25.8893 33.2078H23.3028V35.8878H30.0554C31.9077 35.8878 31.9077 38.6602 30.0554 38.6602H23.3028V46.9769H24.9013C26.5584 42.1687 33.4747 42.2156 35.1157 46.9773ZM20.4892 33.2078H18.8013C16.949 33.2078 16.949 30.4355 18.8013 30.4355H20.4892V27.386C20.4892 26.6207 21.1191 26 21.8962 26C24.0491 26 47.7104 26.009 47.7104 26C51.5615 26 54.916 27.8786 56.8899 31.1424L59.6482 35.7034C62.0553 35.7301 64.0054 37.6704 64.0054 40.0462V48.3633C64.0054 49.1286 63.3755 49.7493 62.5988 49.7493H60.1462C59.642 52.1958 57.448 54 54.8614 54C52.2749 54 50.0809 52.1958 49.5766 49.7493H35.2933C34.789 52.1958 32.595 54 30.0085 54C27.4219 54 25.228 52.1958 24.7237 49.7493H21.8962C21.1191 49.7493 20.4892 49.1286 20.4892 48.3633V44.2045H17.3943C15.5424 44.2045 15.5424 41.4325 17.3943 41.4325H20.4892V38.6602H17.3943C15.5424 38.6602 15.5424 35.8878 17.3943 35.8878H20.4892V33.2078ZM56.6852 46.8896C57.6922 47.8819 57.6922 49.4913 56.6852 50.4836C55.065 52.08 52.2822 50.9444 52.2822 48.6866C52.2822 46.4288 55.065 45.2932 56.6852 46.8896ZM56.383 35.7031H50.219V29.148C52.0138 29.7149 53.4815 30.9049 54.4828 32.5609L56.383 35.7031ZM31.8322 46.8896C32.8393 47.8819 32.8393 49.4913 31.8322 50.4836C30.2121 52.08 27.4293 50.9444 27.4293 48.6866C27.4296 46.4288 30.2121 45.2932 31.8322 46.8896Z" fill="#01A8FF"/>
</svg>
