<svg width="80" height="80" viewBox="0 0 80 80" fill="none" xmlns="http://www.w3.org/2000/svg">
<circle cx="40.0054" cy="40" r="39.5" fill="white" stroke="#01A8FF"/>
<circle cx="40.5054" cy="40.5" r="36.5" fill="white" stroke="#01A8FF" stroke-width="2" stroke-dasharray="3 3"/>
<path fill-rule="evenodd" clip-rule="evenodd" d="M67.3826 43.6266C66.4864 43.6266 65.7599 44.3688 65.7599 45.2845C65.7599 46.1999 66.4864 46.9423 67.3826 46.9423C68.2787 46.9423 69.0054 46.2 69.0054 45.2845C69.0054 44.3687 68.2788 43.6266 67.3826 43.6266ZM62.0437 42.3449C62.0437 41.0913 60.995 40.0753 59.7012 40.0753C58.4075 40.0753 57.3586 41.0913 57.3586 42.3449C57.3586 43.5984 58.4073 44.6147 59.7012 44.6147C60.9951 44.6147 62.0437 43.5984 62.0437 42.3449ZM62.0524 37.9337H64.6377V46.7557H62.0524V46.1919C61.322 46.7008 60.4404 47 59.4895 47C56.9731 47 54.9331 44.9158 54.9331 42.3448C54.9331 39.7738 56.9731 37.6898 59.4895 37.6898C60.4404 37.6898 61.3221 37.9889 62.0524 38.498V37.9337ZM41.3627 39.0828V37.9338H38.7157V46.7557H41.3686V42.6369C41.3686 41.2472 42.8428 40.5003 43.8658 40.5003C43.8763 40.5003 43.886 40.5014 43.8965 40.5015V37.9345C42.8466 37.9345 41.881 38.3936 41.3627 39.0828ZM34.7691 42.3449C34.7691 41.0913 33.7202 40.0753 32.4264 40.0753C31.1327 40.0753 30.0838 41.0914 30.0838 42.3449C30.0838 43.5985 31.1327 44.6147 32.4264 44.6147C33.7203 44.6147 34.7691 43.5985 34.7691 42.3449ZM34.7776 37.9337H37.3631V46.7558H34.7776V46.1919C34.0473 46.7008 33.1656 47 32.2149 47C29.6984 47 27.6583 44.9159 27.6583 42.3448C27.6583 39.7738 29.6984 37.6898 32.2149 37.6898C33.1657 37.6898 34.0473 37.989 34.7776 38.498V37.9337ZM50.3391 37.6964C49.3063 37.6964 48.3289 38.024 47.6754 38.9277V37.9342H45.1012V46.7558H47.7071V42.1198C47.7071 40.7782 48.5876 40.1213 49.6479 40.1213C50.7841 40.1213 51.4374 40.8148 51.4374 42.1016V46.7558H54.0196V41.1458C54.0196 39.0927 52.4219 37.6964 50.3391 37.6964ZM23.8924 46.7558H26.5984V34.0023H23.8924V46.7558ZM12.0054 46.7594H14.8708V34H12.0054V46.7594ZM22.0275 34C22.0275 36.7623 20.9739 39.3319 19.0964 41.2419L23.0572 46.7598H19.518L15.2136 40.7631L16.3245 39.9131C18.1668 38.5031 19.2235 36.348 19.2235 34L22.0275 34Z" fill="#01A8FF"/>
</svg>
