<svg width="80" height="80" viewBox="0 0 80 80" fill="none" xmlns="http://www.w3.org/2000/svg">
<circle cx="40.0054" cy="40" r="39.5" fill="white" stroke="#01A8FF"/>
<circle cx="40.5054" cy="40.5" r="36.5" fill="white" stroke="#01A8FF" stroke-width="2" stroke-dasharray="3 3"/>
<path d="M52.8479 44.6542C54.4999 42.1452 55.463 39.1443 55.463 35.922C55.463 27.1426 48.3201 20 39.5406 20C30.7611 20 23.6186 27.1426 23.6186 35.922C23.6186 39.1443 24.5817 42.1452 26.2334 44.6542L20.0054 53.7371L27.1319 52.4084L28.4609 59.535L34.3342 50.9691C35.9666 51.5355 37.7182 51.8441 39.5406 51.8441C41.3634 51.8441 43.1149 51.5355 44.747 50.9691L50.6206 59.535L51.9493 52.4084L59.0759 53.7371L52.8479 44.6542ZM29.7202 53.5778L28.9954 49.6905L25.1083 50.4156L27.7313 46.59C28.9876 47.9793 30.4851 49.146 32.1568 50.025L29.7202 53.5778ZM25.9487 35.922C25.9487 28.4275 32.0461 22.3301 39.5406 22.3301C47.0355 22.3301 53.1329 28.4275 53.1329 35.922C53.1329 43.4169 47.0355 49.5143 39.5406 49.5143C32.0461 49.5143 25.9487 43.4169 25.9487 35.922ZM50.0858 49.6905L49.361 53.5778L46.9248 50.025C48.5964 49.146 50.094 47.9793 51.3503 46.59L53.9732 50.4153L50.0858 49.6905Z" fill="#01A8FF"/>
<path d="M36.7025 39.4186L32.9141 35.6305L31.2666 37.278L36.7025 42.7139L47.8154 31.6014L46.1679 29.9539L36.7025 39.4186Z" fill="#01A8FF"/>
</svg>
